<svg id="Layer_2" data-name="Layer 2" xmlns="http://www.w3.org/2000/svg" viewBox="0 0 44.85 44.85"><defs><style>.cls-1{fill:#ffb30b;}.cls-2{fill:#2d2d2d;}</style></defs><rect class="cls-1" width="44.85" height="44.85" rx="6.75"/><path class="cls-2" d="M661.78,1197.61c-1.92-.53-2.31-1-2.16-2.61.1-1.13.62-1.71,1.76-1.72q6.76,0,13.52,0a1.54,1.54,0,0,1,1.7,1.56c.12,1.71-.17,2.31-1.38,2.53-.58.11-.77.34-.76.93q.06,2.67,0,5.34a1.35,1.35,0,0,0,.75,1.34,13.7,13.7,0,0,1,3.51,20.6,4.53,4.53,0,0,1-3.71,1.77q-6.88,0-13.79,0a4.34,4.34,0,0,1-3.62-1.72,13.81,13.81,0,0,1,3.5-20.75,1.21,1.21,0,0,0,.69-1.2C661.76,1201.66,661.78,1199.62,661.78,1197.61Zm4.21-.13v1.19c0,2.52,0,5,0,7.56a1.16,1.16,0,0,1-.72,1.14,31.57,31.57,0,0,0-4.21,2.92,8.43,8.43,0,0,0-2.47,5.32c.56-.2,1-.34,1.37-.5a12.78,12.78,0,0,1,10.6.21,15.28,15.28,0,0,0,3.34,1.19,36,36,0,0,0,3.94.43c-.1-2.48-.54-4.65-2.23-6.22a32.23,32.23,0,0,0-4.42-3.25,1.39,1.39,0,0,1-.82-1.35c0-2.61,0-5.22,0-7.83,0-.38.1-.82-.52-.81Z" transform="translate(-645.72 -1187.89)"/></svg>