<svg id="Layer_2" data-name="Layer 2" xmlns="http://www.w3.org/2000/svg" viewBox="0 0 44.85 44.85"><defs><style>.cls-1{fill:#ffb30b;}.cls-2{fill:#2d2d2d;}</style></defs><rect class="cls-1" width="44.85" height="44.85" rx="6.75"/><path class="cls-2" d="M104.6,2274.45a13.43,13.43,0,0,1,0,1.81c0,.19-.38.39-.62.49a9.59,9.59,0,0,0-5.71,5.46,9.69,9.69,0,0,0,2.74,11.2l.45.43c-.32,0-.53,0-.73,0H87.24a3.53,3.53,0,0,1-3.82-3.84v-20.63a3.57,3.57,0,0,1,3.82-3.85c2.59,0,5.18,0,7.77,0,.63,0,.79.2.78.8,0,2,0,3.94,0,5.91,0,1.63.55,2.19,2.15,2.19h6.67Z" transform="translate(-75.73 -2257.29)"/><path class="cls-2" d="M115.24,2286a7.92,7.92,0,1,1-7.89-8A7.86,7.86,0,0,1,115.24,2286Zm-8.81-1.06c-.9,0-1.71,0-2.52,0-.59,0-1,.31-1,1s.47.87,1,.89,1.23,0,1.85,0c.47,0,.67.14.65.64s0,1.13,0,1.7c0,.79.3,1.2.86,1.22s1-.43,1-1.2,0-1.51,0-2.36c.93,0,1.76,0,2.59,0,.49,0,.93-.27.9-.78a1.55,1.55,0,0,0-.53-.94c-.18-.17-.55-.16-.84-.17-.68,0-1.36,0-2.12,0,0-.87,0-1.65,0-2.44s-.45-1.12-1-1.06a.92.92,0,0,0-.87,1.07C106.45,2283.28,106.43,2284.06,106.43,2284.93Z" transform="translate(-75.73 -2257.29)"/><path class="cls-2" d="M104.33,2272.56H97.7v-6.63Z" transform="translate(-75.73 -2257.29)"/></svg>