<svg id="Layer_2" data-name="Layer 2" xmlns="http://www.w3.org/2000/svg" viewBox="0 0 34.14 34.14"><defs><style>.cls-1{fill:#fff;}.cls-2{fill:none;stroke:#2d2d2d;stroke-miterlimit:10;stroke-width:3px;}.cls-3{fill:#2d2d2d;}</style></defs><circle class="cls-1" cx="17.07" cy="17.07" r="15.57"/><circle class="cls-2" cx="17.07" cy="17.07" r="15.57"/><path class="cls-3" d="M669.36,1367.35h5.16a4,4,0,0,1,.78,0,1.17,1.17,0,0,1,1,1.24,1.1,1.1,0,0,1-1.06,1.14c-1.62,0-3.25,0-4.87.06-1,0-1,0-1,1,0,1.53,0,3.07,0,4.6a1.19,1.19,0,0,1-1.66,1.2,1.11,1.11,0,0,1-.75-1.14c0-1.69,0-3.38,0-5.08,0-.44-.11-.61-.58-.6-1.48,0-3,0-4.45,0a7.55,7.55,0,0,1-.83,0,1.13,1.13,0,0,1-1.08-1.14,1.16,1.16,0,0,1,1-1.25,8,8,0,0,1,1.2,0c1.39,0,2.79,0,4.18,0,.43,0,.54-.13.54-.53,0-1.68,0-3.35,0-5a1.22,1.22,0,1,1,2.42,0v5.56Z" transform="translate(-651.07 -1351.53)"/></svg>