<svg id="Layer_2" data-name="Layer 2" xmlns="http://www.w3.org/2000/svg" viewBox="0 0 44.85 44.85"><defs><style>.cls-1{fill:#ffb30b;}.cls-2{fill:#2d2d2d;}</style></defs><rect class="cls-1" width="44.85" height="44.85" rx="6.75"/><path class="cls-2" d="M657.72,4823c0-3.11,0-6.22,0-9.33a2.65,2.65,0,0,1,1.34-2.56,2.61,2.61,0,0,1,2.87.22q7.58,4.65,15.16,9.27a2.69,2.69,0,0,1,1.49,2.19,2.32,2.32,0,0,1-1.13,2.29c-5.28,3.23-10.55,6.47-15.85,9.67a2.49,2.49,0,0,1-3.86-2.2C657.7,4829.36,657.72,4826.18,657.72,4823Z" transform="translate(-645.72 -4800.53)"/></svg>