<svg id="Layer_2" data-name="Layer 2" xmlns="http://www.w3.org/2000/svg" viewBox="0 0 44.85 44.85"><defs><style>.cls-1{fill:#ffb30b;}.cls-2{fill:#2d2d2d;}</style></defs><rect class="cls-1" width="44.85" height="44.85" rx="6.75"/><path class="cls-2" d="M683,5100.46c0,.32,0,.54,0,.77V5112a3.8,3.8,0,0,1-4.14,4.12H657.32a3.8,3.8,0,0,1-4.11-4.07v-10.77c0-.25,0-.5,0-.89.93.68,1.76,1.28,2.59,1.9l9.86,7.39a3.78,3.78,0,0,0,4.95,0q5.93-4.45,11.87-8.89C682.66,5100.66,682.82,5100.59,683,5100.46Z" transform="translate(-645.72 -5082.49)"/><path class="cls-2" d="M668.16,5093.7c3.88,0,7.75,0,11.63,0,1.74,0,2.75.66,3.15,2a2.67,2.67,0,0,1-.92,2.93q-6.28,4.76-12.59,9.49a2,2,0,0,1-2.59,0q-6.29-4.71-12.53-9.44a2.57,2.57,0,0,1-1-2.76,2.54,2.54,0,0,1,2.22-2.1,7.7,7.7,0,0,1,1.17-.1C660.51,5093.69,664.33,5093.7,668.16,5093.7Z" transform="translate(-645.72 -5082.49)"/></svg>