<svg id="Layer_2" data-name="Layer 2" xmlns="http://www.w3.org/2000/svg" viewBox="0 0 34.14 34.14"><defs><style>.cls-1{fill:#fff;}.cls-2{fill:none;stroke:#2d2d2d;stroke-miterlimit:10;stroke-width:3px;}</style></defs><circle class="cls-1" cx="17.07" cy="17.07" r="15.57"/><circle class="cls-2" cx="17.07" cy="17.07" r="15.57"/><path d="M1195.89,4210.69h6.54c.88,0,1.31.33,1.42,1a1.13,1.13,0,0,1-1,1.36,6.36,6.36,0,0,1-.87.06h-12.21a6.36,6.36,0,0,1-.87-.06,1.1,1.1,0,0,1-1-1.14,1.17,1.17,0,0,1,1-1.21,4.17,4.17,0,0,1,.71,0Z" transform="translate(-1178.79 -4194.84)"/></svg>