<svg id="Layer_2" data-name="Layer 2" xmlns="http://www.w3.org/2000/svg" viewBox="0 0 291.61 89.02"><defs><style>.cls-1{fill:#4f9efb;}.cls-2{fill:#ffb30b;}.cls-3{fill:#2d2d2d;}.cls-4{fill:#fdae0b;}.cls-5{fill:#fba50a;}.cls-6{fill:#2f2f2f;}.cls-7{fill:#2e2e2e;}.cls-8{fill:#4d9af7;}.cls-9{fill:#303232;}.cls-10{fill:#f7990a;}.cls-11{fill:#4a94f3;}.cls-12{fill:#363535;}.cls-13{fill:#f48e09;}.cls-14{fill:#353535;}.cls-15{fill:#ef7f08;}.cls-16{fill:#303030;}.cls-17{fill:#335ab7;}.cls-18{fill:#4386e6;}.cls-19{fill:#468ded;}.cls-20{fill:#3e3e3e;}.cls-21{fill:#343434;}.cls-22{fill:#373737;}.cls-23{fill:#3468ca;}.cls-24{fill:#3c78d8;}.cls-25{fill:#383838;}.cls-26{fill:#383737;}.cls-27{fill:#3e7fde;}.cls-28{fill:#3870d2;}.cls-29{fill:#262626;}.cls-30{fill:#646262;}.cls-31{fill:#484141;}.cls-32{fill:#323131;}.cls-33{fill:#313131;}</style></defs><path class="cls-1" d="M474.48,457.61q0-6.21,0-12.42c0-.34,0-.69,0-1a.55.55,0,0,0-.56-.53c-.4,0-.81,0-1.21,0H437.15c-1.73,0-1.71-.09-1.71,1.69V481c0,.29,0,.58,0,.87,0,.63.17.75.87.78.51,0,1,0,1.55,0,1.9,0,3.79,0,5.69,0,.78,0,1,.17,1,.88q0,4.4,0,8.8c0,.64-.2.81-.82.85-.34,0-.69,0-1,0q-7.94,0-15.88,0c-.4,0-.8,0-1.2,0a.55.55,0,0,1-.54-.56c0-.4,0-.8,0-1.21V435c0-1.85-.06-1.78,1.79-1.78h57.11c.87,0,.95.11,1,1,0,.4,0,.81,0,1.21q0,10.26,0,20.53c0,.58,0,1.15,0,1.73a1.7,1.7,0,0,1-1.05.5,70.15,70.15,0,0,1-8.33,0A1.15,1.15,0,0,1,474.48,457.61Z" transform="translate(-425.02 -432.13)"/><path class="cls-2" d="M459.9,495.75q0,4.14.07,8.28c0,.8,0,1.61,0,2.41,0,.57.16.71.71.74s.92,0,1.38,0h34.86c2.36,0,2.09.23,2.1-2.15V470.19c0-2.29.19-2.06-2-2.07s-4.14,0-6.22,0c-.78,0-.9-.12-.9-.9,0-2.88,0-5.75,0-8.63,0-.74.14-.83.95-.86.34,0,.69,0,1,0h15.54l1.38,0c.42,0,.6.26.61.66s0,.69,0,1v56.95c0,1.32,0,1.33-1.37,1.35H451.65c-2.3,0-2.09.23-2.09-2.16q0-3.88,0-7.77c0-.57.05-1.14.07-1.72,2.68.93,5.44.41,8.17.52.94,0,1.34-.47,1.33-1.39,0-.74,0-1.49,0-2.24,0-1,0-2,0-3,0-.81,0-1.61,0-2.42C459.27,496.88,459,496.05,459.9,495.75Z" transform="translate(-425.02 -432.13)"/><path class="cls-3" d="M598.81,496.47a28.66,28.66,0,0,1-11.8-2.14,21.13,21.13,0,0,1-12.21-12.4,26.77,26.77,0,0,1-.8-2.64c-.28-1.1-.19-1.21,1-1.42.85-.15,1.7-.28,2.55-.41l3.58-.52a.56.56,0,0,1,.67.39c.07.22.13.45.2.66a15.52,15.52,0,0,0,10.28,10.14,21.21,21.21,0,0,0,13.72,0,12.45,12.45,0,0,0,5.36-3.32,9.08,9.08,0,0,0,2.32-8.46,7.38,7.38,0,0,0-2.73-4.27,14.57,14.57,0,0,0-5.05-2.54c-2.8-.87-5.61-1.67-8.42-2.5l-8.09-2.41a30.46,30.46,0,0,1-5.11-2.05,16.22,16.22,0,0,1-4.31-3.12,12.79,12.79,0,0,1-3.7-8,18.34,18.34,0,0,1,.52-6.84,15.33,15.33,0,0,1,6.1-8.32,21.89,21.89,0,0,1,9.2-3.7,30,30,0,0,1,13.67.63c7.81,2.3,13,7.29,15.25,15.21.08.28.15.55.21.84.17.86.08,1-.78,1.14l-5.77,1a8.39,8.39,0,0,1-.86.1.51.51,0,0,1-.6-.46c0-.17-.09-.34-.13-.5-1.36-5.33-4.84-8.66-10-10.29a17.81,17.81,0,0,0-12.65.52,11.13,11.13,0,0,0-4.4,3.24,7.83,7.83,0,0,0-1.58,7.13,5.71,5.71,0,0,0,1.51,2.67,11.5,11.5,0,0,0,3.67,2.52,39.14,39.14,0,0,0,4.69,1.69l11.92,3.44q2.57.74,5.06,1.71a20,20,0,0,1,4.8,2.68,13.49,13.49,0,0,1,5.48,9.22,19.81,19.81,0,0,1-.3,7.2,15.85,15.85,0,0,1-6,9.2,23.44,23.44,0,0,1-9.19,4.16A28.84,28.84,0,0,1,598.81,496.47Z" transform="translate(-425.02 -432.13)"/><path class="cls-3" d="M528.63,464.28V435.12c0-1.87-.17-1.74,1.79-1.74H566c1.89,0,1.7,0,1.7,1.66s0,3.23,0,4.84c0,.55-.17.72-.7.74s-1,0-1.55,0H538.14c-2.1,0-1.86-.11-1.87,1.84v15.7c0,.41,0,.81,0,1.21a.5.5,0,0,0,.51.56c.52,0,1,0,1.55,0h22.26c2.19,0,1.89-.14,1.91,2,0,1.56,0,3.11,0,4.66a.58.58,0,0,1-.63.65c-.51,0-1,0-1.55,0H538.43c-.46,0-.93,0-1.38,0-.66,0-.75.13-.78.84,0,.35,0,.69,0,1v16.91c0,.46,0,.92,0,1.38a.44.44,0,0,0,.45.42c.51,0,1,0,1.55,0h27.44c2.2,0,1.92-.14,1.93,2,0,1.55,0,3.1,0,4.65a.57.57,0,0,1-.63.63c-.41,0-.81,0-1.21,0H529.41c-.7,0-.76-.09-.78-.83,0-.46,0-.92,0-1.38Z" transform="translate(-425.02 -432.13)"/><path class="cls-3" d="M632.32,464.24q0-14.5,0-29c0-1.93-.25-1.88,1.84-1.87H639c.87,0,.93.1,1,1,0,.41,0,.81,0,1.21v50.2c0,2.3-.27,2.08,2.16,2.08H667.3c1.32,0,1.34,0,1.34,1.35,0,1.73,0,3.45,0,5.18,0,.57-.14.69-.7.72H634.28c-2.2,0-1.95.14-1.95-1.93Q632.32,478.73,632.32,464.24Z" transform="translate(-425.02 -432.13)"/><path class="cls-2" d="M474.48,457.61c.79,0,1.59.09,2.38.09h8c0,1.48.08,3,.08,4.44,0,2-.05,4-.07,6a3,3,0,0,1-2.12.5c-2.74,0-5.48.06-8.22,0-4,.09-7.93,0-11.89,0-1.94,0-2.08.16-2.09,2.06,0,3.16,0,6.32,0,9.48a3.9,3.9,0,0,1-.46,2.5,2.83,2.83,0,0,1-1.79.45q-3.42,0-6.84,0a2.54,2.54,0,0,1-1.78-.47c0-.51-.08-1-.08-1.54q0-10.77,0-21.54c0-2-.15-1.87,1.84-1.87h20.5C472.76,457.7,473.62,457.65,474.48,457.61Z" transform="translate(-425.02 -432.13)"/><path class="cls-1" d="M449.65,482.66h8.59c.58,0,1.15,0,1.72-.06a3.5,3.5,0,0,1,2.46-.54c3.15,0,6.3,0,9.44,0,1.9,0,2-.19,2.1-2.07.11-2.39-.33-4.8.28-7.18.49-.56.68-.11.9.26a3.39,3.39,0,0,1,.16,1.22c0,.59,0,1.19,0,1.78s0,1.18,0,1.76c0,.79,0,1.57,0,2.35.09,2.26.09,2.3,2.39,2.26s4.81.35,7.13-.52c0,3.49.05,7,.05,10.48,0,.63-.19.78-.84.81-.46,0-.91,0-1.37,0q-10.41,0-20.8,0c-.63,0-1.26,0-1.89.07a2.76,2.76,0,0,1-.57.36,61.53,61.53,0,0,1-8.48.14,1.45,1.45,0,0,1-1.32-.63C449.56,489.66,449.49,486.16,449.65,482.66Z" transform="translate(-425.02 -432.13)"/><path class="cls-4" d="M459.63,503c0,1,0,2.05,0,3.08s-.15,1-1.13,1.06c-2.51,0-5,0-7.51,0a1,1,0,0,1-1.13-.8c0-.1-.15-.17-.23-.25a20.1,20.1,0,0,1,0-3.8c2.68.25,5.37.14,8.06.18A2.75,2.75,0,0,1,459.63,503Z" transform="translate(-425.02 -432.13)"/><path class="cls-5" d="M459.63,503c-2.79,0-5.58,0-8.37,0a1.94,1.94,0,0,1-1.63-.71,10.62,10.62,0,0,1,0-2.76,58.58,58.58,0,0,1,9.08-.09,1.45,1.45,0,0,1,.92.44Z" transform="translate(-425.02 -432.13)"/><path class="cls-6" d="M624,505.69c2.19,0,3.62.93,4.2,2.62a.91.91,0,0,1,0,.49.36.36,0,0,1-.22.23c-.16,0-.4.05-.46,0-.2-.28-.32-.61-.5-.9a3.53,3.53,0,0,0-4.58-1.06,1.92,1.92,0,0,0-.94,1.18,1.49,1.49,0,0,0,.7,1.78,9.93,9.93,0,0,0,1.59.63c1,.34,2,.57,2.94,1a2.77,2.77,0,0,1,1.31,4,2.8,2.8,0,0,1-1.23,1.18,5.24,5.24,0,0,1-5.26-.24,3,3,0,0,1-1.42-1.88.45.45,0,0,1,.29-.55.37.37,0,0,1,.46.11c.17.22.29.49.46.72a4,4,0,0,0,5,1,2,2,0,0,0,1.14-2,1.79,1.79,0,0,0-1.31-1.65c-.85-.32-1.75-.54-2.62-.83a13,13,0,0,1-1.62-.59,2.65,2.65,0,0,1-.34-4.55A4.06,4.06,0,0,1,624,505.69Z" transform="translate(-425.02 -432.13)"/><path class="cls-7" d="M654.23,515c.53-1.71,1-3.36,1.53-5a6.6,6.6,0,0,1,.35-1,.73.73,0,0,1,.42-.24.49.49,0,0,1,.58.26,10.13,10.13,0,0,1,.35,1q.76,2.47,1.51,4.92c.43,0,.47-.28.56-.55.45-1.48.9-3,1.37-4.44a6.15,6.15,0,0,1,.37-1,.42.42,0,0,1,.45-.18.35.35,0,0,1,.28.5c-.3,1-.61,2.09-.93,3.14-.38,1.26-.77,2.53-1.16,3.79a2.73,2.73,0,0,1-.24.64.77.77,0,0,1-.41.26.49.49,0,0,1-.57-.28c-.17-.42-.31-.86-.45-1.3-.42-1.37-.83-2.75-1.25-4.12-.09-.26-.23-.5-.43-.92-.53,1.64-1,3.12-1.46,4.59-.16.5-.3,1-.45,1.49-.09.29-.24.53-.58.55s-.58-.29-.7-.62c0-.06,0-.12,0-.17q-1-3.3-2-6.59a2.62,2.62,0,0,1-.12-.68.32.32,0,0,1,.18-.25c.16,0,.4,0,.48.06a2.13,2.13,0,0,1,.4.74c.48,1.54.94,3.08,1.41,4.62A.88.88,0,0,0,654.23,515Z" transform="translate(-425.02 -432.13)"/><path class="cls-8" d="M484.84,481.91a4.07,4.07,0,0,0-.37.55.68.68,0,0,1-.64.46l-1,0h-6.15c-1.86,0-1.84,0-1.83-1.91,0-.29,0-.57,0-.85a2.71,2.71,0,0,1,1.94-.52c2.69,0,5.38.07,8.06-.17A9.34,9.34,0,0,1,484.84,481.91Z" transform="translate(-425.02 -432.13)"/><path class="cls-9" d="M527.64,511.51v-5c0-.33.16-.57.5-.57,2,0,4,0,6,0,.26,0,.39.21.36.48a.35.35,0,0,1-.33.32l-2.59,0h-1c-2.21,0-2-.29-2,2.06,0,.52,0,1,0,1.55s.26.6.66.6h3.28a3.12,3.12,0,0,1,.68.05.44.44,0,0,1,.34.51.35.35,0,0,1-.31.34,8.87,8.87,0,0,1-1,0h-2.94c-.4,0-.67.14-.68.58v3.1a.58.58,0,0,0,.65.63h3.79a8.11,8.11,0,0,1,1.21.07.36.36,0,0,1,.28.36.4.4,0,0,1-.26.4.61.61,0,0,1-.33,0h-5.7a.56.56,0,0,1-.62-.64v-5Z" transform="translate(-425.02 -432.13)"/><path class="cls-10" d="M459.63,499.86h-8.18a3.35,3.35,0,0,1-1.82-.35,10.63,10.63,0,0,1,0-2.76c2.68.25,5.37.14,8.05.17a2.75,2.75,0,0,1,1.94.52Z" transform="translate(-425.02 -432.13)"/><path class="cls-11" d="M484.84,479.49a2,2,0,0,1-1.63.71c-2.79-.05-5.58,0-8.37,0v-2.42a1.51,1.51,0,0,1,.92-.44,58.56,58.56,0,0,1,9.08.1A6.84,6.84,0,0,1,484.84,479.49Z" transform="translate(-425.02 -432.13)"/><path class="cls-12" d="M537.8,509.42a13.43,13.43,0,0,1,1.37-.68,3.25,3.25,0,0,1,4.46,2.22,4,4,0,0,1,.21,1c0,1.55,0,3.1,0,4.65a1,1,0,0,1,0,.17.42.42,0,0,1-.51.33c-.14,0-.34-.15-.37-.27a3,3,0,0,1-.08-.84c0-1.09,0-2.18,0-3.27a6.16,6.16,0,0,0-.14-1.36,2.33,2.33,0,0,0-2.66-1.9A2.26,2.26,0,0,0,538,511a5.33,5.33,0,0,0-.29,2c0,1.26,0,2.52,0,3.78a.33.33,0,0,1-.34.32.47.47,0,0,1-.53-.31,2.61,2.61,0,0,1-.06-.68c0-.86,0-1.72,0-2.58,0-1.38,0-2.75,0-4.13,0-.29,0-.58.41-.63s.47.24.58.5A.38.38,0,0,0,537.8,509.42Z" transform="translate(-425.02 -432.13)"/><path class="cls-13" d="M459.63,497.44c-2.79,0-5.57,0-8.36,0a1.91,1.91,0,0,1-1.63-.71,6.25,6.25,0,0,1,0-2.07c2.39.26,4.78.12,7.17.21a2.51,2.51,0,0,0,2.83-1.61H460l-.09,2.46C459.46,496.26,459.72,496.88,459.63,497.44Z" transform="translate(-425.02 -432.13)"/><path class="cls-14" d="M597.84,509.42a14.8,14.8,0,0,1,1.38-.69,3.22,3.22,0,0,1,4.43,2.26,6,6,0,0,1,.24,1.52c0,1.26,0,2.52,0,3.78a1.73,1.73,0,0,1,0,.51.46.46,0,0,1-.52.32.36.36,0,0,1-.36-.3,8.77,8.77,0,0,1-.05-1c0-1,0-2.06,0-3.09a6.18,6.18,0,0,0-.17-1.36,2.26,2.26,0,0,0-2.33-1.88,2.33,2.33,0,0,0-2.52,1.89,7.37,7.37,0,0,0-.16,1.7c0,1.2,0,2.41,0,3.61a.43.43,0,0,1-.4.46.47.47,0,0,1-.55-.49c0-1.14,0-2.29,0-3.44s0-2.52,0-3.78c0-.29,0-.58.41-.62s.46.25.59.5A1.47,1.47,0,0,0,597.84,509.42Z" transform="translate(-425.02 -432.13)"/><path class="cls-15" d="M459.64,493.28c0,2.21.11,2.09-2,2.09s-4.35,0-6.52,0a1.84,1.84,0,0,1-1.47-.7c0-.5,0-1,0-1.52h8.51A4.05,4.05,0,0,1,459.64,493.28Z" transform="translate(-425.02 -432.13)"/><path class="cls-16" d="M559.32,512.81c0-1.21,0-2.42,0-3.62a.35.35,0,0,1,.3-.36c.17,0,.33,0,.41.17s.18.56.57.32a6.13,6.13,0,0,1,.9-.51,3.31,3.31,0,0,1,4.74,2.48,7.87,7.87,0,0,1,.11,1.54c0,1.26,0,2.53,0,3.79,0,.24-.07.45-.36.49a.49.49,0,0,1-.55-.5c0-.34,0-.69,0-1,0-.86,0-1.72,0-2.59a10.52,10.52,0,0,0-.1-1.37,2.3,2.3,0,0,0-2.28-2.16,2.35,2.35,0,0,0-2.64,2,7.07,7.07,0,0,0-.2,2.05c0,1.09,0,2.18,0,3.27a.38.38,0,0,1-.46.37.36.36,0,0,1-.33-.33c0-1,0-1.95-.05-2.93v-1Z" transform="translate(-425.02 -432.13)"/><path class="cls-17" d="M474.48,468.21c1,0,2-.08,3.06-.08h7.32a4.37,4.37,0,0,1,0,1.69,1.89,1.89,0,0,1-1.25.49,66.14,66.14,0,0,1-8.33-.12c-.69-.23-.83-.81-.91-1.43A.82.82,0,0,1,474.48,468.21Z" transform="translate(-425.02 -432.13)"/><path class="cls-18" d="M474.84,476v-1.72a2.06,2.06,0,0,1,1.42-.5c2.39,0,4.79,0,7.18,0a2.06,2.06,0,0,1,1.42.5,4.79,4.79,0,0,1,0,1.73,1.86,1.86,0,0,1-1.24.49c-2.51.09-5,.09-7.52,0A1.83,1.83,0,0,1,474.84,476Z" transform="translate(-425.02 -432.13)"/><path class="cls-19" d="M474.84,476h10a3.38,3.38,0,0,1,0,1.38,3.42,3.42,0,0,1-1.81.35c-2.73,0-5.46,0-8.19,0Z" transform="translate(-425.02 -432.13)"/><path class="cls-20" d="M692.34,511.42c0-1.67,0-3.33,0-5a.43.43,0,0,1,.38-.48.49.49,0,0,1,.58.47c0,.46,0,.92,0,1.38q0,3.61,0,7.23c0,1.27.11,1.2,1.28,1.21h3.27a2,2,0,0,1,.65.14.34.34,0,0,1,.17.43.41.41,0,0,1-.18.26,1.37,1.37,0,0,1-.49.09c-1.61,0-3.22,0-4.82,0-.77,0-.85-.09-.86-.92,0-1.61,0-3.21,0-4.82Z" transform="translate(-425.02 -432.13)"/><path class="cls-21" d="M646.22,509.66c-.55-.07-1.06-.13-1.56-.22-.07,0-.15-.16-.16-.26a.36.36,0,0,1,.11-.28,1.68,1.68,0,0,1,.65-.16c1,0,1.14-.2,1.1-1.23a4,4,0,0,1,.07-.85.35.35,0,0,1,.4-.24c.17,0,.36.07.38.28,0,.39.07.79.1,1.19.05.69.15.8.8.83s1,0,1.54.1c.07,0,.17.15.19.25s-.05.39-.21.41c-.51.06-1,.06-1.54.09s-.76.15-.76.67c0,1.49-.05,3,0,4.48,0,1.27.36,1.54,1.68,1.67a3.61,3.61,0,0,1,.67.08c.08,0,.15.17.16.27a.38.38,0,0,1-.1.3,2.32,2.32,0,0,1-3.3-1.38,8.85,8.85,0,0,1-.08-1.55c0-1.26,0-2.52,0-3.79A3.34,3.34,0,0,0,646.22,509.66Z" transform="translate(-425.02 -432.13)"/><path class="cls-22" d="M643.65,506.35a12.16,12.16,0,0,0-1.34.25,1,1,0,0,0-.74.86c-.13,1-.05,1.32,1,1.27a1.65,1.65,0,0,1,1.17.16.4.4,0,0,1,.12.28.36.36,0,0,1-.16.26,5,5,0,0,1-1.69.15.45.45,0,0,0-.44.43c0,.46,0,.92,0,1.38,0,1.55,0,3.09,0,4.64a5.84,5.84,0,0,1-.1.84c0,.21-.24.24-.4.25s-.36,0-.39-.24a7,7,0,0,1-.08-1c0-1.72,0-3.44,0-5.16,0-.92,0-.92-1-1.16a.58.58,0,0,1-.3-.12.41.41,0,0,1-.11-.3.36.36,0,0,1,.13-.28,2.48,2.48,0,0,1,.66-.12c.44,0,.61-.25.61-.66a2.59,2.59,0,0,1,.3-1.49,1.11,1.11,0,0,1,.62-.55c.27-.1.58-.08.81-.26a2.32,2.32,0,0,1,1.38,0A.34.34,0,0,1,643.65,506.35Z" transform="translate(-425.02 -432.13)"/><path class="cls-23" d="M474.84,469.82h10a2.93,2.93,0,0,1,0,1.38,1.84,1.84,0,0,1-1.25.49c-2.58,0-5.16.05-7.73,0a1.78,1.78,0,0,1-1-.32A1.06,1.06,0,0,1,474.84,469.82Z" transform="translate(-425.02 -432.13)"/><path class="cls-24" d="M474.84,469.82v1.38c.45.58,1.09.52,1.72.53h6.17a2.89,2.89,0,0,1,2.11.51,1.81,1.81,0,0,1,0,1,2.22,2.22,0,0,1-1.58.51q-3.42,0-6.84,0a2.27,2.27,0,0,1-1.59-.5.81.81,0,0,0-.28-.69,3.5,3.5,0,0,1,0-4.11C475,468.86,474.78,469.37,474.84,469.82Z" transform="translate(-425.02 -432.13)"/><path class="cls-25" d="M587.34,512.72v-3.44c0-.25.11-.47.37-.49a.47.47,0,0,1,.39.24c.12.34.3.5.6.26a3.43,3.43,0,0,1,1.91-.67.7.7,0,0,1,.47.15.81.81,0,0,1,.16.45.35.35,0,0,1-.18.25,3.73,3.73,0,0,1-.5.08,2.22,2.22,0,0,0-2.16,2.23,20.15,20.15,0,0,0-.09,2.06c0,.8,0,1.61,0,2.41,0,.64-.18.92-.54.87s-.42-.47-.42-.79c0-1.2,0-2.41,0-3.61Z" transform="translate(-425.02 -432.13)"/><path class="cls-26" d="M672.73,508.79c.06,0,.16,0,.17,0,.32.95.77.4,1.26.15a5.24,5.24,0,0,1,1.32-.35.63.63,0,0,1,.48.09.59.59,0,0,1,.24.41c0,.13-.15.28-.27.38s-.22,0-.33,0a2.29,2.29,0,0,0-2.28,2.5c-.08,1.37,0,2.75-.06,4.13,0,.28,0,.6-.17.81s-.3.1-.46.13a.2.2,0,0,1-.25-.19,2.13,2.13,0,0,1-.1-.49q0-3.54,0-7.06a1,1,0,0,1,.14-.47C672.47,508.83,672.63,508.83,672.73,508.79Z" transform="translate(-425.02 -432.13)"/><path class="cls-27" d="M474.83,473.28h10a2,2,0,0,1,0,1h-10Z" transform="translate(-425.02 -432.13)"/><path class="cls-28" d="M484.84,472.24h-8.18c-.29,0-.57,0-.86,0-.78,0-.78,0-1-1h10A1.93,1.93,0,0,1,484.84,472.24Z" transform="translate(-425.02 -432.13)"/><path class="cls-29" d="M556.65,512.85c0,1,0,2.07,0,3.1a6.11,6.11,0,0,1,0,.86.33.33,0,0,1-.35.29.46.46,0,0,1-.51-.35,2.15,2.15,0,0,1,0-.51c0-2.18,0-4.37,0-6.55a2.53,2.53,0,0,1,.1-.67c.05-.2.25-.22.41-.23a.33.33,0,0,1,.37.27q.06.6.06,1.2C556.66,511.12,556.65,512,556.65,512.85Z" transform="translate(-425.02 -432.13)"/><path class="cls-29" d="M594.18,512.88c0,1.15,0,2.3,0,3.44a1.73,1.73,0,0,1-.16.66.34.34,0,0,1-.29.12c-.16,0-.35,0-.4-.21a1.28,1.28,0,0,1-.07-.34q0-3.62,0-7.23c0-.06,0-.13,0-.17s.09-.33.32-.35.49.05.53.3a12.39,12.39,0,0,1,.07,1.36c0,.81,0,1.61,0,2.42Z" transform="translate(-425.02 -432.13)"/><path class="cls-30" d="M594.24,506.38c0,.42-.15.68-.51.71a.44.44,0,0,1-.53-.48c0-.33-.05-.69.39-.79A.54.54,0,0,1,594.24,506.38Z" transform="translate(-425.02 -432.13)"/><path class="cls-21" d="M556.66,506.41c0,.41-.13.65-.47.64a.48.48,0,0,1-.5-.54c0-.43.24-.69.58-.64S556.64,506.23,556.66,506.41Z" transform="translate(-425.02 -432.13)"/><path class="cls-31" d="M642.27,505.76a.74.74,0,0,1-.81.26A.71.71,0,0,1,642.27,505.76Z" transform="translate(-425.02 -432.13)"/><path class="cls-31" d="M643.65,506.35v-.56C644,506,644,506.1,643.65,506.35Z" transform="translate(-425.02 -432.13)"/><path class="cls-6" d="M613.13,509.23a.41.41,0,0,0-.42-.44.4.4,0,0,0-.45.4c0,.24-.08.47-.39.29s-.36-.3-.55-.42a3.45,3.45,0,0,0-5.23,1.72,5.75,5.75,0,0,0,0,4.37,3.46,3.46,0,0,0,5.13,1.72c.28-.16.46-.52.89-.44a4.13,4.13,0,0,1-.17,2,2.15,2.15,0,0,1-2.09,1.73,3,3,0,0,1-2.75-1.12.39.39,0,0,0-.6,0,.46.46,0,0,0-.06.73,2.55,2.55,0,0,0,.35.38,4,4,0,0,0,3.36.94,2.88,2.88,0,0,0,2.82-2.74,11,11,0,0,0,.15-1.72c0-2.24,0-4.48,0-6.71C613.15,509.69,613.15,509.46,613.13,509.23ZM611.84,515a2.4,2.4,0,0,1-2.33,1.48,2.45,2.45,0,0,1-2.35-1.44,4.08,4.08,0,0,1-.45-2.1,4.59,4.59,0,0,1,.29-1.76,2.46,2.46,0,0,1,2.47-1.78,2.4,2.4,0,0,1,2.48,1.74A4.93,4.93,0,0,1,611.84,515Z" transform="translate(-425.02 -432.13)"/><path class="cls-6" d="M553.1,509.19a.61.61,0,0,0-.29-.37.42.42,0,0,0-.56.24c-.07.14-.13.29-.2.46a13.25,13.25,0,0,0-1.35-.77,3.32,3.32,0,0,0-4.32,1.42,5.44,5.44,0,0,0,0,5.59,3.39,3.39,0,0,0,4.35,1.36,14.36,14.36,0,0,0,1.36-.84,6.24,6.24,0,0,1-.23,2.39,2.15,2.15,0,0,1-1.75,1.48,3.07,3.07,0,0,1-2.59-.62c-.22-.18-.41-.4-.63-.57s-.32,0-.45.11a.36.36,0,0,0-.16.44,1.41,1.41,0,0,0,.27.43,4,4,0,0,0,3.78,1.12,2.83,2.83,0,0,0,2.56-2.42,10.79,10.79,0,0,0,.19-1.7c0-2.36,0-4.71,0-7.06A3.16,3.16,0,0,0,553.1,509.19Zm-1.32,5.9a2.47,2.47,0,0,1-2.39,1.39,2.35,2.35,0,0,1-2.21-1.38,4.77,4.77,0,0,1,0-4.32,2.38,2.38,0,0,1,2.39-1.38,2.44,2.44,0,0,1,2.24,1.35,4.41,4.41,0,0,1,.44,2.17A4.26,4.26,0,0,1,551.78,515.09Z" transform="translate(-425.02 -432.13)"/><path class="cls-32" d="M579.59,513.25h4.48c1.26,0,1.36-.07,1.18-1.4a4,4,0,0,0-4.06-3.37,3.62,3.62,0,0,0-3.46,2.83,6.42,6.42,0,0,0,0,3.08,3.66,3.66,0,0,0,3.17,3,3.91,3.91,0,0,0,4-1.77.41.41,0,0,0-.07-.6.4.4,0,0,0-.6,0,8.87,8.87,0,0,1-1,1,2.87,2.87,0,0,1-4.52-1.63C578.45,513.4,578.56,513.26,579.59,513.25Zm0-3.2a2.61,2.61,0,0,1,1.9-.65c1.69,0,2.57.9,2.71,2.79a24.2,24.2,0,0,1-5.45,0A2.36,2.36,0,0,1,579.56,510.05Z" transform="translate(-425.02 -432.13)"/><path class="cls-33" d="M574.74,513.25c1.26,0,1.36-.09,1.18-1.4a4.87,4.87,0,0,0-.23-.83,3.5,3.5,0,0,0-3.67-2.54,3.63,3.63,0,0,0-3.59,2.68,6.35,6.35,0,0,0-.08,3.24,3.81,3.81,0,0,0,4.72,2.91,3.64,3.64,0,0,0,2.55-1.88.34.34,0,0,0-.15-.44c-.14-.09-.29-.24-.46-.09s-.55.59-.85.84a2.89,2.89,0,0,1-4.79-1.44c-.07-.27-.1-.55-.15-.85.25-.12.3-.16.35-.16C571.29,513.27,573,513.24,574.74,513.25ZM570.23,510a2.65,2.65,0,0,1,2.08-.63c1.59.06,2.44,1,2.5,2.92h-4.63a1.12,1.12,0,0,1-.85-.19A2.56,2.56,0,0,1,570.23,510Z" transform="translate(-425.02 -432.13)"/><path class="cls-6" d="M716.2,510.7a3.44,3.44,0,0,0-4.84-1.87c-.35.17-.58.58-1.1.52,0-.2-.08-.42-.09-.63,0-.52,0-1,0-1.56a5.31,5.31,0,0,0,0-.69.49.49,0,0,0-.56-.48.44.44,0,0,0-.35.5c0,1.55,0,3.1,0,4.65,0,1.79,0,3.57,0,5.35,0,.28,0,.6.41.61s.37-.21.39-.45.17-.41.44-.25a3.9,3.9,0,0,1,.4.31,3.46,3.46,0,0,0,5.43-1.79A5.9,5.9,0,0,0,716.2,510.7Zm-.83,3.87a2.63,2.63,0,0,1-5.07-.05,5,5,0,0,1,.07-3.38,2.4,2.4,0,0,1,2.32-1.73,2.5,2.5,0,0,1,2.59,1.61,6.32,6.32,0,0,1,.35,2A11.64,11.64,0,0,1,715.37,514.57Z" transform="translate(-425.02 -432.13)"/><path class="cls-33" d="M679,513.26h2.76v0c.92,0,1.83,0,2.75,0,.47,0,.65-.19.63-.61a6,6,0,0,0-.12-1.2,3.6,3.6,0,0,0-3.36-2.94,3.66,3.66,0,0,0-4,2.59,6,6,0,0,0-.06,3.56,3.56,3.56,0,0,0,3.18,2.75,4,4,0,0,0,3.9-1.69.87.87,0,0,0,.14-.31.32.32,0,0,0-.2-.41c-.15-.06-.39-.14-.47-.07-.34.3-.6.7-1,1a2.88,2.88,0,0,1-4.7-1.92C678.44,513.5,678.59,513.27,679,513.26Zm-.47-1.59a2.7,2.7,0,0,1,3.13-2.25c1.51.13,2.26,1,2.34,2.89-1.71,0-3.41,0-5.12,0C678.62,512.31,678.47,512,678.54,511.67Z" transform="translate(-425.02 -432.13)"/><path class="cls-16" d="M706.85,511.23a2.53,2.53,0,0,0-2.07-2.61,4.36,4.36,0,0,0-2.87.17,2.87,2.87,0,0,0-1.54,1.54c-.09.22-.11.45.14.59a.5.5,0,0,0,.63,0c.23-.26.37-.6.61-.83a2.82,2.82,0,0,1,3.07-.43c.94.35,1.13,1.2,1,2.21-.92.14-1.81.3-2.72.42a6.27,6.27,0,0,0-1.82.48,2.18,2.18,0,0,0-1.42,2.16,2.34,2.34,0,0,0,1.54,2.26,4.08,4.08,0,0,0,3.49-.3c.34-.18.57-.58,1-.56a1.34,1.34,0,0,1,.13.27c0,.28.08.59.49.52s.32-.29.32-.52C706.88,514.79,706.91,513,706.85,511.23Zm-4.08,5.27a5.21,5.21,0,0,1-.85-.13,1.39,1.39,0,0,1-1-1.23,1.45,1.45,0,0,1,.64-1.48,4.7,4.7,0,0,1,1.78-.6c.67-.12,1.36-.15,2-.24a.45.45,0,0,1,.56.46A2.9,2.9,0,0,1,702.77,516.5Z" transform="translate(-425.02 -432.13)"/><path class="cls-16" d="M669.92,511.17a2.53,2.53,0,0,0-2.12-2.57,4.36,4.36,0,0,0-2.87.22,2.77,2.77,0,0,0-1.5,1.58c-.06.15-.1.32.07.45a.59.59,0,0,0,.64.11.9.9,0,0,0,.31-.4,2.54,2.54,0,0,1,2.86-1.09,1.66,1.66,0,0,1,1.61,1.52c.16.69,0,.92-.73,1a21.19,21.19,0,0,0-2.22.32,7.62,7.62,0,0,0-1.49.4A2.23,2.23,0,0,0,663,515a2.35,2.35,0,0,0,1.77,2.28,4,4,0,0,0,2.2,0,6.28,6.28,0,0,0,2.11-1.14c.06.26.1.37.11.48s.08.47.37.48a.38.38,0,0,0,.43-.42C670,514.85,670,513,669.92,511.17Zm-1.11,3.39c-.29,1.24-1.45,2-3.06,1.94a3.93,3.93,0,0,1-.85-.16,1.37,1.37,0,0,1-.92-1.14,1.39,1.39,0,0,1,.58-1.5,3.28,3.28,0,0,1,.94-.41c.67-.15,1.34-.25,2-.35C669.17,512.7,669.27,512.63,668.81,514.56Z" transform="translate(-425.02 -432.13)"/><path class="cls-16" d="M637.48,511.33a3.64,3.64,0,0,0-3.8-2.85,3.54,3.54,0,0,0-3.54,2.51,5.63,5.63,0,0,0,.05,4,3.85,3.85,0,0,0,7.24-.3A5.88,5.88,0,0,0,637.48,511.33Zm-1.14,3.47a2.53,2.53,0,0,1-2.56,1.66,2.56,2.56,0,0,1-2.59-1.62,5,5,0,0,1-.12-3.53,2.56,2.56,0,0,1,2.75-1.88,2.49,2.49,0,0,1,2.6,1.84A4.79,4.79,0,0,1,636.34,514.8Z" transform="translate(-425.02 -432.13)"/></svg>